<svg id="Layer_1" data-name="Layer 1" xmlns="http://www.w3.org/2000/svg" viewBox="0 0 36.42 50.05"><defs><style>.cls-1{fill:#3a63ad;}.cls-2{fill:#3b63ad;}.cls-3{fill:#f9b021;}</style></defs><path class="cls-1" d="M16.54,13.33a4.91,4.91,0,0,1,5-4.77,5,5,0,0,1,4.87,3.51,4.14,4.14,0,0,1,1.67,3.28v1a6.55,6.55,0,0,0,.75-3,7.11,7.11,0,0,0-7.29-6.9,7.11,7.11,0,0,0-7.29,6.9,7,7,0,0,0,4.94,6.53V17.54A4.73,4.73,0,0,1,16.54,13.33Z" transform="translate(-7.44 0.03)"/><path class="cls-2" d="M9.69,13.33C9.69,7.14,15,2.11,21.56,2.11s11.86,5,11.86,11.22a10.74,10.74,0,0,1-2.15,6.44,3.57,3.57,0,0,1,1.33,1.37,2.42,2.42,0,0,1,.51-.14,12.74,12.74,0,0,0,2.56-7.67C35.67,6,29.33,0,21.56,0S7.44,6,7.44,13.33c0,6.62,5.11,12.12,11.79,13.17V24.35A11.46,11.46,0,0,1,9.69,13.33Z" transform="translate(-7.44 0.03)"/><path class="cls-3" d="M39.5,22.31a4.22,4.22,0,0,0-1.74.3,3.65,3.65,0,0,0-1.31-1.13,4.88,4.88,0,0,0-3.29-.5l-.51.14a3.59,3.59,0,0,0-1.33-1.38c-.1,0-.2-.11-.3-.16a5,5,0,0,0-2.88-.5V15.3A4.12,4.12,0,0,0,26.47,12a4.57,4.57,0,0,0-2.76-.91,4.32,4.32,0,0,0-4.43,4.19V27.53a5.06,5.06,0,0,0-4.21-1.42A3.55,3.55,0,0,0,12.21,28c-1,2,.43,4.68.8,5.32L21.68,50H39.89l2.28-6.4a29.5,29.5,0,0,0,1.69-9.78V26.64A4.46,4.46,0,0,0,39.5,22.31Zm1,11.52A25.86,25.86,0,0,1,39,42.6l-1.5,4.24H23.74L16,31.86l-.05-.09a3.83,3.83,0,0,1-.7-2.41,1,1,0,0,1,.39-.11c1.21-.18,2.71,2,3.56,4.12a1.78,1.78,0,0,0,2,1.06,1.71,1.71,0,0,0,1.46-1.68V15.35a1.09,1.09,0,0,1,2.18,0v6a.41.41,0,0,0,0,.16v6.58a1.38,1.38,0,0,0,2.76,0V22.86c.1-.05.17-.12.27-.18a1.65,1.65,0,0,1,1-.49,1.91,1.91,0,0,1,.72.23.24.24,0,0,1,.12.14v6a1.36,1.36,0,0,0,2.72,0V25.06a2.8,2.8,0,0,0,.43-.3c1-1,1.48-.83,2.11-.5a.72.72,0,0,1,.26.45v.05a1.54,1.54,0,0,0,.13.6V30A1.33,1.33,0,0,0,38,30V26.2a1.48,1.48,0,0,0,.34-.25,1.5,1.5,0,0,1,1.11-.53,1.19,1.19,0,0,1,1.09,1.17v7.24Z" transform="translate(-7.44 0.03)"/></svg>